<?xml version="1.0" encoding="UTF-8" standalone="no"?>
<svg width="32" height="32" viewBox="0 0 32 32" fill="none" xmlns="http://www.w3.org/2000/svg">
  <rect width="32" height="32" rx="8" fill="#4F46E5"/>
  <path d="M22 11H10C9.45 11 9 11.45 9 12V20C9 20.55 9.45 21 10 21H22C22.55 21 23 20.55 23 20V12C23 11.45 22.55 11 22 11ZM21 19H11C10.73 19 10.5 18.78 10.5 18.5V13.5C10.5 13.22 10.73 13 11 13H21C21.27 13 21.5 13.22 21.5 13.5V18.5C21.5 18.78 21.27 19 21 19Z" fill="white"/>
  <path d="M16 13.5C16 13.22 15.78 13 15.5 13H13.5C13.22 13 13 13.22 13 13.5V16.5C13 16.78 13.22 17 13.5 17H15.5C15.78 17 16 16.78 16 16.5V13.5Z" fill="white"/>
  <path d="M19 15.5C19 15.22 18.78 15 18.5 15H17.5C17.22 15 17 15.22 17 15.5V16.5C17 16.78 17.22 17 17.5 17H18.5C18.78 17 19 16.78 19 16.5V15.5Z" fill="white"/>
</svg>
